# xmcd
#
# Track frame offsets:
#	150
#	18874
#	41619
#	80093
#	94650
#	118444
#	140321
#	162410
#	179859
#	210150
#	213407
#	243150
#
# Disc length: 3651 seconds
#
# Revision: 1
# Processed by: cddbd v1.5PL3 Copyright (c) Steve Scherf et al.
# Submitted via: CDmax 2.0
#
DISCID=a50e410c
DTITLE=Jorma Kaukonen - Live in Charlottesville, VA - 12.05.1985 - d1
DYEAR=1985
DGENRE=Blues
TTITLE0=I Know You Rider
TTITLE1=Hesitation Blues
TTITLE2=Death Don't Have No Mercy
TTITLE3=Embryonic Journey
TTITLE4=Good Shepherd
TTITLE5=Broken Highway
TTITLE6=Genesis
TTITLE7=I Am The Light Of This World
TTITLE8=Ice Age
TTITLE9=-silence--
TTITLE10=Police Dog Blues
TTITLE11=Killin Tim in the Crystal City
EXTD=Jorma Kaukonen\nLive at the Mineshaft\nCharlottesville, VA\n12.05.1985\n
EXTD=\nDisc 1:\nSet 1:\n01. I Know You Rider\n02. Hesitation Blues\n03. Deat
EXTD=h Don't Have No Mercy\n04. Embryonic Journey\n05. Good Shepherd\n06. Bro
EXTD=ken Highway\n07. Genesis\n08. I Am The Light Of This World\n09. Ice Age\
EXTD=n10. --silence--\n11. Police Dog Blues\n12. Killin' Time in the Crysta
EXTD=l City\n\nDisc 2:\nSet 2:\n01. Keep Your Lamps Trimmed And Burning\n02
EXTD=Walkin' Blues\n03. Whinin' Boy Blues\n04. Follow The Drinking Gourd\n0
EXTD=5. Candy man\n06. Uncle Sam Blues\n07. I'll Be All Right Someday\n08. 9
EXTD=9 Year Blues\n09. Another Man Done Gone\n10. Rock Me Baby\n11. Trial B
EXTD=y Fire\n12. That'll Never Happen No More\n13. Mann's Fate\n14. Too Hot T
EXTD=o Handle\n15. Water Song
EXTT0=
EXTT1=
EXTT2=
EXTT3=
EXTT4=
EXTT5=
EXTT6=
EXTT7=
EXTT8=
EXTT9=
EXTT10=
EXTT11=
PLAYORDER=
